<?xml version="1.0" encoding="utf-8"?>
<!-- Generator: Adobe Illustrator 17.0.0, SVG Export Plug-In . SVG Version: 6.00 Build 0)  -->
<!DOCTYPE svg PUBLIC "-//W3C//DTD SVG 1.1//EN" "http://www.w3.org/Graphics/SVG/1.1/DTD/svg11.dtd">
<svg version="1.1" id="Layer_1" xmlns="http://www.w3.org/2000/svg" xmlns:xlink="http://www.w3.org/1999/xlink" x="0px" y="0px"
	 viewBox="0 0 134 134" enable-background="new 0 0 134 134" xml:space="preserve">
<path opacity="0.2" fill="#009345" d="M57.175,23.723c0,0,22.073-4.729,21.71,47.255c-0.282,40.431-1.403,58.688-1.403,58.688
	l14.127-4.702c0,0,5.318-67.605-4.236-86.197S57.175,23.723,57.175,23.723z"/>
<path fill="none" stroke="#009345" stroke-width="5.3957" stroke-linejoin="round" stroke-miterlimit="13" d="M90.279,133.443
	c2.821-19.448,2.189-41.092,2.095-41.119v0.73c0.094-0.026,0.726-21.67-2.095-41.117c-1.05-7.247-1.023-17.341-11.35-25.422
	c-3.583-2.802-9.375-4.038-13.721-4.038c-4.345,0-10.137,1.235-13.72,4.038c-10.327,8.081-10.3,18.175-11.35,25.422
	c-2.821,19.447-2.189,41.092-2.095,41.117v-0.73c-0.094,0.027-0.726,21.67,2.095,41.119"/>
<path fill="#009345" d="M94.227,91.215c3.29,0,5.959,2.669,5.959,5.96c0,3.291-2.669,5.959-5.959,5.959"/>
<path fill="#009345" d="M40.896,54.135c-3.29,0-5.959-2.669-5.959-5.96c0-3.291,2.669-5.959,5.959-5.959"/>
<path fill="#FFFFFF" d="M0,0v134h134V0H0z M66.968,128.322c-33.794,0-61.19-27.396-61.19-61.19c0-33.794,27.396-61.19,61.19-61.19
	s61.19,27.396,61.19,61.19C128.158,100.927,100.763,128.322,66.968,128.322z"/>
<g opacity="0.5">
	<path fill="#CCCCCC" d="M66.968,11.679c30.577,0,55.453,24.876,55.453,55.453s-24.876,55.453-55.453,55.453
		S11.515,97.71,11.515,67.132S36.391,11.679,66.968,11.679 M66.968,5.942c-33.794,0-61.19,27.396-61.19,61.19
		s27.396,61.19,61.19,61.19s61.19-27.396,61.19-61.19S100.763,5.942,66.968,5.942L66.968,5.942z"/>
</g>
<path fill="none" stroke="#009345" stroke-width="3.0136" stroke-linecap="round" stroke-linejoin="round" stroke-miterlimit="10" d="
	M61.969,47.375c0,0-1.516,14.402-8.702,17.592c-6.463,2.87,8.674,5.599,8.674,5.599s3.998,3.639,5.52-0.656
	c0.201-0.568,0.522-3.359-3.403-3.219"/>
<path fill="none" stroke="#009345" stroke-width="2.631" stroke-linecap="round" stroke-linejoin="round" stroke-miterlimit="10" d="
	M49,44.75c0,0,1.432-0.693,5-2.491"/>
<path fill="none" stroke="#009345" stroke-width="2.7338" stroke-linecap="round" stroke-linejoin="round" stroke-miterlimit="10" d="
	M74.621,44.259c0,0-2.501-1.323-4.995-2.302"/>
<circle fill="#009345" cx="54.63" cy="48.674" r="2.54"/>
<circle fill="#009345" cx="69.63" cy="48.674" r="2.54"/>
<line fill="none" stroke="#009345" stroke-width="2" stroke-linecap="round" stroke-linejoin="round" stroke-miterlimit="10" x1="58" y1="81" x2="62" y2="81"/>
</svg>
