<?xml version="1.0" encoding="utf-8"?>
<!-- Generator: Adobe Illustrator 17.0.0, SVG Export Plug-In . SVG Version: 6.00 Build 0)  -->
<!DOCTYPE svg PUBLIC "-//W3C//DTD SVG 1.1//EN" "http://www.w3.org/Graphics/SVG/1.1/DTD/svg11.dtd">
<svg version="1.1" id="Layer_1" xmlns="http://www.w3.org/2000/svg" xmlns:xlink="http://www.w3.org/1999/xlink" x="0px" y="0px"
	  viewBox="0 0 134 134" enable-background="new 0 0 134 134" xml:space="preserve">
<path opacity="0.2" fill="#009345" d="M56.09,23.728c0,0,24.95-4.803,24.54,47.997c-0.319,41.065-1.586,59.609-1.586,59.609
	l15.968-4.776c0,0,6.011-68.666-4.788-87.549S56.09,23.728,56.09,23.728z"/>
<path fill="none" stroke="#009345" stroke-width="5.7366" stroke-linejoin="round" stroke-miterlimit="13" d="M93.508,133.443
	c3.189-19.448,2.474-41.092,2.368-41.119v0.73c0.106-0.026,0.821-21.67-2.368-41.117c-1.187-7.247-1.156-17.341-12.83-25.422
	c-4.05-2.802-10.597-4.038-15.51-4.038c-4.911,0-11.458,1.235-15.508,4.038c-11.673,8.081-11.642,18.175-12.83,25.422
	c-3.189,19.447-2.474,41.092-2.368,41.117v-0.73c-0.106,0.027-0.821,21.67,2.368,41.119"/>
<path fill="#009345" d="M94.227,42.215c3.29,0,5.959,2.669,5.959,5.96c0,3.291-2.669,5.959-5.959,5.959"/>
<path fill="#009345" d="M33.301,86.463c-3.29,0-5.959-2.669-5.959-5.96c0-3.291,2.669-5.959,5.959-5.959"/>
<path fill="#FFFFFF" d="M0,0v134h134V0H0z M66.968,128.322c-33.794,0-61.19-27.396-61.19-61.19c0-33.794,27.396-61.19,61.19-61.19
	s61.19,27.396,61.19,61.19C128.158,100.927,100.763,128.322,66.968,128.322z"/>
<g opacity="0.5">
	<path fill="#CCCCCC" d="M66.968,11.679c30.577,0,55.453,24.876,55.453,55.453s-24.876,55.453-55.453,55.453
		S11.515,97.71,11.515,67.132S36.391,11.679,66.968,11.679 M66.968,5.942c-33.794,0-61.19,27.396-61.19,61.19
		s27.396,61.19,61.19,61.19s61.19-27.396,61.19-61.19S100.763,5.942,66.968,5.942L66.968,5.942z"/>
</g>
<path fill="none" stroke="#009345" stroke-width="3.706" stroke-linecap="round" stroke-linejoin="round" stroke-miterlimit="10" d="
	M69.57,51.632c0,0,5.907,14.969,4.981,23.617c-0.926,8.647-12.045,4.015-12.045,4.015s-5.336,2.471-6.374-2.471
	c-1.038-4.941,1.742-7.676,6.374-6.309"/>
<path fill="none" stroke="#009345" stroke-width="3.706" stroke-linecap="round" stroke-linejoin="round" stroke-miterlimit="10" d="
	M49,44.75c0,0,6.085-6.25,12.17-4.75"/>
<path fill="none" stroke="#009345" stroke-width="3.021" stroke-linecap="round" stroke-linejoin="round" stroke-miterlimit="10" d="
	M83.75,43.829c0,0-4.96-5.095-9.921-3.872"/>
<circle fill="#009345" cx="56.63" cy="53.674" r="2.54"/>
<circle fill="#009345" cx="80.63" cy="53.674" r="2.54"/>
<line fill="none" stroke="#009345" stroke-width="4" stroke-linecap="round" stroke-linejoin="round" stroke-miterlimit="10" x1="62" y1="93" x2="71" y2="93"/>
</svg>
