<?xml version="1.0" encoding="utf-8"?>
<!-- Generator: Adobe Illustrator 17.0.0, SVG Export Plug-In . SVG Version: 6.00 Build 0)  -->
<!DOCTYPE svg PUBLIC "-//W3C//DTD SVG 1.1//EN" "http://www.w3.org/Graphics/SVG/1.1/DTD/svg11.dtd">
<svg version="1.1" id="Layer_1" xmlns="http://www.w3.org/2000/svg" xmlns:xlink="http://www.w3.org/1999/xlink" x="0px" y="0px"
	  viewBox="0 0 134 134" enable-background="new 0 0 134 134" xml:space="preserve">
<path opacity="0.2" fill="#009345" d="M56.09,23.723c0,0,24.95-4.729,24.54,47.255c-0.319,40.431-1.586,58.688-1.586,58.688
	l15.968-4.702c0,0,6.011-67.605-4.788-86.197S56.09,23.723,56.09,23.723z"/>
<path fill="none" stroke="#009345" stroke-width="5.7366" stroke-linejoin="round" stroke-miterlimit="13" d="M93.508,133.443
	c3.189-19.448,2.474-41.092,2.368-41.119v0.73c0.106-0.026,0.821-21.67-2.368-41.117c-1.187-7.247-1.156-17.341-12.83-25.422
	c-4.05-2.802-10.597-4.038-15.51-4.038c-4.911,0-11.458,1.235-15.508,4.038c-11.673,8.081-11.642,18.175-12.83,25.422
	c-3.189,19.447-2.474,41.092-2.368,41.117v-0.73c-0.106,0.027-0.821,21.67,2.368,41.119"/>
<path fill="#009345" d="M84.512,26.861c2.486-2.155,6.251-1.886,8.407,0.601c2.156,2.487,1.886,6.251-0.6,8.406"/>
<path fill="#009345" d="M33.301,115.054c-3.29,0-5.959-2.669-5.959-5.96c0-3.291,2.669-5.959,5.959-5.959"/>
<path fill="#FFFFFF" d="M0,0v134h134V0H0z M66.968,128.322c-33.794,0-61.19-27.396-61.19-61.19c0-33.794,27.396-61.19,61.19-61.19
	s61.19,27.396,61.19,61.19C128.158,100.927,100.763,128.322,66.968,128.322z"/>
<g opacity="0.5">
	<path fill="#CCCCCC" d="M66.968,11.679c30.577,0,55.453,24.876,55.453,55.453s-24.876,55.453-55.453,55.453
		S11.515,97.71,11.515,67.132S36.391,11.679,66.968,11.679 M66.968,5.942c-33.794,0-61.19,27.396-61.19,61.19
		s27.396,61.19,61.19,61.19s61.19-27.396,61.19-61.19S100.763,5.942,66.968,5.942L66.968,5.942z"/>
</g>
<path fill="none" stroke="#009345" stroke-width="1.7948" stroke-linecap="round" stroke-linejoin="round" stroke-miterlimit="10" d="
	M44.097,47.749c0,0,0.563-4.187,3.363-5.359"/>
<path fill="none" stroke="#009345" stroke-width="2.1027" stroke-linecap="round" stroke-linejoin="round" stroke-miterlimit="10" d="
	M78.371,47.71c0,0-0.882-4.87-4.22-6.093"/>
<circle fill="#009345" cx="51.63" cy="51.674" r="2.54"/>
<circle fill="#009345" cx="70.63" cy="50.674" r="2.54"/>
<line fill="none" stroke="#009345" stroke-width="3" stroke-linecap="round" stroke-linejoin="round" stroke-miterlimit="10" x1="51" y1="86.5" x2="67" y2="86.5"/>
<path fill="none" stroke="#009345" stroke-width="3.706" stroke-linecap="round" stroke-linejoin="round" stroke-miterlimit="10" d="
	M60.5,50.674c0,0-4.16,3.659-5.33,8.992c-1.17,5.333-2,12.667-2,12.667s6.163,9.011,11.83,1.672"/>
</svg>
