<?xml version="1.0" encoding="utf-8"?>
<!-- Generator: Adobe Illustrator 17.0.0, SVG Export Plug-In . SVG Version: 6.00 Build 0)  -->
<!DOCTYPE svg PUBLIC "-//W3C//DTD SVG 1.1//EN" "http://www.w3.org/Graphics/SVG/1.1/DTD/svg11.dtd">
<svg version="1.1" id="Layer_1" xmlns="http://www.w3.org/2000/svg" xmlns:xlink="http://www.w3.org/1999/xlink" x="0px" y="0px"
	 viewBox="0 0 600 76" enable-background="new 0 0 600 76" xml:space="preserve">
<g>
	<g>
		<path fill="#FFFFFF" d="M45.307,51.802c0,5.333-2,9.903-5.999,13.707c-4,3.805-8.805,5.708-14.415,5.708H8.978
			c-0.667,0-1.237-0.236-1.708-0.708c-0.473-0.471-0.708-1.042-0.708-1.708V6.89c0-1.554,0.805-2.333,2.417-2.333h14.415
			c6.277,0,11.193,1.639,14.749,4.916c3.387,3.056,5.083,7.083,5.083,12.082c0,5.389-2,9.638-6,12.749
			c-0.5,0.39-0.75,0.806-0.75,1.25c0,0.445,0.25,0.833,0.75,1.167C42.612,40.442,45.307,45.469,45.307,51.802z M31.226,22.972
			c0-2.167-0.69-3.971-2.067-5.416c-1.379-1.444-3.081-2.167-5.106-2.167h-3.544c-1.632,0-2.447,0.75-2.447,2.25v11.415
			c0,0.612,0.252,1.167,0.759,1.667c0.506,0.5,1.069,0.75,1.688,0.75h3.544c1.969,0,3.657-0.86,5.063-2.583
			C30.521,27.167,31.226,25.194,31.226,22.972z M32.476,51.302c0-2.5-0.931-4.791-2.792-6.874c-1.862-2.083-3.847-3.125-5.958-3.125
			h-3.25c-1.612,0-2.416,0.778-2.416,2.333v14.665c0,1.556,0.804,2.333,2.416,2.333h4.583c2.054,0,3.804-0.902,5.25-2.708
			C31.753,56.122,32.476,53.914,32.476,51.302z"/>
		<path fill="#FFFFFF" d="M95.634,68.8c0.167,0.612,0.041,1.167-0.379,1.667c-0.419,0.5-0.964,0.75-1.635,0.75h-7.556
			c-1.12,0-1.846-0.799-2.182-2.398l-2.009-9.848c-0.279-1.445-1-2.169-2.165-2.169H69.546c-1.388,0-2.194,0.723-2.415,2.167
			L65.383,68.8c-0.333,1.612-1.139,2.417-2.416,2.417h-7.413c-0.61,0-1.11-0.25-1.499-0.75c-0.389-0.5-0.528-1.055-0.417-1.667
			L65.888,6.89c0.333-1.554,1.111-2.333,2.333-2.333h11.916c1.221,0,2,0.779,2.333,2.333L95.634,68.8z M78.803,43.386l-3.916-21.831
			c-0.223-1.167-0.528-1.75-0.917-1.75c-0.389,0-0.667,0.583-0.833,1.75l-3.583,21.831c-0.279,1.612,0.333,2.417,1.833,2.417h5.416
			c0.61,0,1.125-0.236,1.542-0.708C78.761,44.623,78.914,44.053,78.803,43.386z"/>
		<path fill="#FFFFFF" d="M144.461,53.468c0,5.111-1.82,9.499-5.458,13.165c-3.639,3.667-8.013,5.5-13.124,5.5h-0.75
			c-5.111,0-9.499-1.833-13.165-5.5c-3.667-3.666-5.5-8.054-5.5-13.165V22.222c0-5.11,1.827-9.484,5.481-13.124
			c3.654-3.637,8.076-5.458,13.265-5.458h0.754c5.132,0,9.499,1.82,13.098,5.458c3.598,3.639,5.397,8.014,5.397,13.124v2.833
			c0,0.556-0.237,1.07-0.708,1.542c-0.473,0.473-1.014,0.708-1.625,0.708h-6.999c-0.612,0-1.167-0.236-1.667-0.708
			c-0.5-0.471-0.75-0.985-0.75-1.542v-1c0-2.555-0.661-4.735-1.981-6.541c-1.32-1.805-2.964-2.708-4.932-2.708
			c-2.023,0-3.767,0.903-5.228,2.708c-1.46,1.806-2.191,3.986-2.191,6.541v28.163c0,2.612,0.721,4.82,2.167,6.625
			c1.444,1.806,3.166,2.708,5.166,2.708c2,0,3.708-0.902,5.125-2.708c1.417-1.805,2.125-4.013,2.125-6.625v-2.166
			c0-1.555,0.721-2.333,2.167-2.333h6.999c1.555,0,2.333,0.779,2.333,2.333V53.468z"/>
		<path fill="#FFFFFF" d="M198.955,68.967c0.055,0.222,0.083,0.445,0.083,0.667c0,1.056-0.556,1.583-1.665,1.583h-8.49
			c-0.888,0-1.638-0.751-2.247-2.255l-10.142-26.173c-0.224-0.545-0.504-0.819-0.838-0.819c-0.336,0-0.643,0.278-0.922,0.833
			l-3.856,6.5c-0.28,0.5-0.419,1-0.419,1.5v18.165c0,1.5-0.723,2.25-2.167,2.25h-7.416c-1.389,0-2.083-0.75-2.083-2.25V6.724
			c0-1.444,0.694-2.167,2.083-2.167h7.416c1.444,0,2.167,0.723,2.167,2.167v20.165c0,0.833,0.221,1.25,0.667,1.25
			c0.388,0,0.805-0.388,1.25-1.167l11.499-20.164c0.833-1.5,1.61-2.25,2.333-2.25h8.333c1.221,0,1.833,0.531,1.833,1.591
			c0,0.224-0.077,0.448-0.228,0.671l-12.869,21.895c-0.213,0.445-0.235,0.889-0.069,1.333L198.955,68.967z"/>
		<path fill="#FFFFFF" d="M246.865,54.468c0,5.445-1.764,9.777-5.291,12.999c-3.528,3.222-8.069,4.833-13.624,4.833
			c-6.555,0-11.638-2.304-15.248-6.916c-2-2.555-3.667-6.166-5-10.832c-0.389-1.333,0.055-2.221,1.333-2.667l6.166-2.083
			c0.277-0.055,0.527-0.083,0.75-0.083c1.111,0,1.833,0.529,2.167,1.583c1.888,6.945,5.166,10.416,9.832,10.416
			c2.333,0,4.152-0.652,5.458-1.958c1.304-1.305,1.958-3.069,1.958-5.291c0-2.944-2.278-6.387-6.833-10.332
			c-4.166-3.5-8.361-7-12.582-10.499c-4.555-4.5-6.833-8.943-6.833-13.332c0-5.221,1.777-9.36,5.333-12.416
			c3.221-2.833,7.22-4.25,11.999-4.25c5.833,0,10.553,2.278,14.165,6.833c1.833,2.333,3.221,5.056,4.166,8.166
			c0.055,0.223,0.083,0.472,0.083,0.75c0,1-0.5,1.667-1.5,2l-5.416,1.75c-0.223,0.112-0.445,0.167-0.667,0.167
			c-1,0-1.695-0.5-2.083-1.5c-2.5-5.887-5.416-8.832-8.749-8.832c-1.778,0-3.32,0.75-4.625,2.25c-1.306,1.5-1.958,3.195-1.958,5.083
			c0,2.278,2.333,5.305,6.999,9.082c7.554,6.111,11.887,9.722,12.999,10.832C244.532,44.998,246.865,49.748,246.865,54.468z"/>
	</g>
	<g>
		<path fill="#FFFFFF" d="M392.798,51.802c0,5.333-2,9.903-6,13.707c-3.999,3.805-8.805,5.708-14.415,5.708h-15.914
			c-0.667,0-1.237-0.236-1.709-0.708c-0.473-0.471-0.708-1.042-0.708-1.708V6.89c0-1.554,0.805-2.333,2.417-2.333h14.414
			c6.277,0,11.193,1.639,14.749,4.916c3.388,3.056,5.083,7.083,5.083,12.082c0,5.389-2,9.638-6,12.749
			c-0.5,0.39-0.75,0.806-0.75,1.25c0,0.445,0.25,0.833,0.75,1.167C390.103,40.442,392.798,45.469,392.798,51.802z M378.716,22.972
			c0-2.167-0.69-3.971-2.067-5.416c-1.379-1.444-3.08-2.167-5.106-2.167h-3.544c-1.633,0-2.447,0.75-2.447,2.25v11.415
			c0,0.612,0.252,1.167,0.759,1.667c0.507,0.5,1.069,0.75,1.688,0.75h3.544c1.969,0,3.657-0.86,5.063-2.583
			C378.012,27.167,378.716,25.194,378.716,22.972z M379.966,51.302c0-2.5-0.931-4.791-2.792-6.874s-3.847-3.125-5.957-3.125h-3.25
			c-1.611,0-2.416,0.778-2.416,2.333v14.665c0,1.556,0.805,2.333,2.416,2.333h4.583c2.055,0,3.805-0.902,5.249-2.708
			C379.243,56.122,379.966,53.914,379.966,51.302z"/>
		<path fill="#FFFFFF" d="M443.125,68.8c0.167,0.612,0.04,1.167-0.379,1.667s-0.965,0.75-1.635,0.75h-7.557
			c-1.12,0-1.847-0.799-2.183-2.398l-2.009-9.848c-0.278-1.445-1-2.169-2.165-2.169h-10.161c-1.388,0-2.194,0.723-2.415,2.167
			l-1.749,9.832c-0.333,1.612-1.139,2.417-2.415,2.417h-7.413c-0.61,0-1.11-0.25-1.498-0.75c-0.39-0.5-0.529-1.055-0.417-1.667
			l12.249-61.91c0.333-1.554,1.11-2.333,2.333-2.333h11.915c1.221,0,2,0.779,2.333,2.333L443.125,68.8z M426.294,43.386
			l-3.916-21.831c-0.223-1.167-0.529-1.75-0.917-1.75c-0.39,0-0.667,0.583-0.833,1.75l-3.583,21.831
			c-0.278,1.612,0.333,2.417,1.833,2.417h5.416c0.61,0,1.125-0.236,1.541-0.708C426.252,44.623,426.404,44.053,426.294,43.386z"/>
		<path fill="#FFFFFF" d="M491.952,53.468c0,5.111-1.82,9.499-5.458,13.165c-3.639,3.667-8.014,5.5-13.123,5.5h-0.75
			c-5.111,0-9.499-1.833-13.166-5.5c-3.666-3.666-5.499-8.054-5.499-13.165V22.222c0-5.11,1.827-9.484,5.481-13.124
			c3.654-3.637,8.076-5.458,13.266-5.458h0.754c5.132,0,9.498,1.82,13.097,5.458c3.599,3.639,5.398,8.014,5.398,13.124v2.833
			c0,0.556-0.237,1.07-0.709,1.542c-0.473,0.473-1.014,0.708-1.624,0.708h-7c-0.611,0-1.166-0.236-1.666-0.708
			c-0.5-0.471-0.75-0.985-0.75-1.542v-1c0-2.555-0.661-4.735-1.981-6.541c-1.32-1.805-2.965-2.708-4.932-2.708
			c-2.023,0-3.767,0.903-5.228,2.708c-1.461,1.806-2.191,3.986-2.191,6.541v28.163c0,2.612,0.722,4.82,2.167,6.625
			c1.443,1.806,3.166,2.708,5.166,2.708s3.708-0.902,5.124-2.708c1.417-1.805,2.125-4.013,2.125-6.625v-2.166
			c0-1.555,0.722-2.333,2.166-2.333h7c1.554,0,2.333,0.779,2.333,2.333V53.468z"/>
		<path fill="#FFFFFF" d="M546.445,68.967c0.055,0.222,0.083,0.445,0.083,0.667c0,1.056-0.556,1.583-1.665,1.583h-8.489
			c-0.889,0-1.639-0.751-2.247-2.255l-10.143-26.173c-0.224-0.545-0.504-0.819-0.839-0.819s-0.643,0.278-0.921,0.833l-3.856,6.5
			c-0.28,0.5-0.42,1-0.42,1.5v18.165c0,1.5-0.722,2.25-2.166,2.25h-7.416c-1.389,0-2.083-0.75-2.083-2.25V6.724
			c0-1.444,0.694-2.167,2.083-2.167h7.416c1.444,0,2.166,0.723,2.166,2.167v20.165c0,0.833,0.222,1.25,0.667,1.25
			c0.388,0,0.805-0.388,1.25-1.167l11.499-20.164c0.833-1.5,1.61-2.25,2.333-2.25h8.332c1.221,0,1.833,0.531,1.833,1.591
			c0,0.224-0.077,0.448-0.228,0.671l-12.868,21.895c-0.214,0.445-0.236,0.889-0.069,1.333L546.445,68.967z"/>
		<path fill="#FFFFFF" d="M594.355,54.468c0,5.445-1.765,9.777-5.291,12.999c-3.528,3.222-8.069,4.833-13.624,4.833
			c-6.555,0-11.638-2.304-15.248-6.916c-2-2.555-3.666-6.166-4.999-10.832c-0.39-1.333,0.055-2.221,1.333-2.667l6.166-2.083
			c0.277-0.055,0.527-0.083,0.75-0.083c1.11,0,1.833,0.529,2.166,1.583c1.888,6.945,5.166,10.416,9.832,10.416
			c2.333,0,4.152-0.652,5.458-1.958c1.305-1.305,1.958-3.069,1.958-5.291c0-2.944-2.278-6.387-6.833-10.332
			c-4.166-3.5-8.36-7-12.581-10.499c-4.556-4.5-6.833-8.943-6.833-13.332c0-5.221,1.777-9.36,5.333-12.416
			c3.221-2.833,7.221-4.25,11.998-4.25c5.833,0,10.554,2.278,14.165,6.833c1.834,2.333,3.222,5.056,4.167,8.166
			c0.055,0.223,0.083,0.472,0.083,0.75c0,1-0.5,1.667-1.5,2l-5.416,1.75c-0.223,0.112-0.445,0.167-0.667,0.167
			c-0.999,0-1.694-0.5-2.083-1.5c-2.499-5.887-5.416-8.832-8.749-8.832c-1.778,0-3.319,0.75-4.624,2.25
			c-1.306,1.5-1.958,3.195-1.958,5.083c0,2.278,2.333,5.305,6.999,9.082c7.554,6.111,11.887,9.722,12.998,10.832
			C592.022,44.998,594.355,49.748,594.355,54.468z"/>
	</g>
	<g>
		<path fill="#FFFFFF" d="M296.87,45.209c0,2.287-0.803,4.239-2.408,5.857c-1.606,1.619-3.552,2.428-5.838,2.428h-1.194
			c-2.287,0-4.233-0.809-5.838-2.428c-1.606-1.618-2.409-3.57-2.409-5.857V30.027c0-2.287,0.803-4.226,2.409-5.819
			c1.605-1.592,3.551-2.389,5.838-2.389h1.194c2.286,0,4.232,0.797,5.838,2.389c1.605,1.593,2.408,3.532,2.408,5.819V45.209z
			 M291.398,44.4V31.028c0-1.156-0.321-2.132-0.963-2.928c-0.643-0.796-1.413-1.195-2.312-1.195c-0.899,0-1.683,0.405-2.351,1.214
			c-0.668,0.809-1.002,1.779-1.002,2.909V44.4c0,1.104,0.333,2.055,1.002,2.852c0.668,0.796,1.451,1.194,2.351,1.194
			c0.899,0,1.669-0.392,2.312-1.175C291.077,46.487,291.398,45.53,291.398,44.4z"/>
		<path fill="#FFFFFF" d="M320.261,52.029c0,0.694-0.349,1.041-1.043,1.041h-3.012c-0.464,0-0.837-0.319-1.12-0.958l-7.337-16.387
			c-0.078-0.202-0.184-0.303-0.314-0.303c-0.185,0-0.275,0.142-0.275,0.424v16.184c0,0.694-0.36,1.041-1.079,1.041h-3.16
			c-0.643,0-0.964-0.347-0.964-1.041V23.283c0-0.694,0.321-1.041,0.964-1.041h3.16c0.564,0,1.002,0.36,1.31,1.079l7.091,15.837
			c0.103,0.18,0.23,0.27,0.385,0.27s0.231-0.141,0.231-0.424V23.322c0-0.282,0.115-0.533,0.347-0.751
			c0.231-0.218,0.488-0.328,0.771-0.328h3.006c0.693,0,1.041,0.36,1.041,1.079V52.029z"/>
	</g>
</g>
</svg>
