<?xml version="1.0" encoding="utf-8"?>
<!-- Generator: Adobe Illustrator 17.0.0, SVG Export Plug-In . SVG Version: 6.00 Build 0)  -->
<!DOCTYPE svg PUBLIC "-//W3C//DTD SVG 1.1//EN" "http://www.w3.org/Graphics/SVG/1.1/DTD/svg11.dtd">
<svg version="1.1" id="Layer_1" xmlns="http://www.w3.org/2000/svg" xmlns:xlink="http://www.w3.org/1999/xlink" x="0px" y="0px"
	 viewBox="0 0 340 280" enable-background="new 0 0 340 280" xml:space="preserve">
<g>
	<polyline fill="#84A931" points="42,257 42,9 301,9 301,257 	"/>
	<path fill="#385409" d="M301.5,258.5c-0.828,0-1.5-0.672-1.5-1.5V10H44v247c0,0.828-0.671,1.5-1.5,1.5S41,257.828,41,257V8.5
		C41,7.671,41.671,7,42.5,7h259c0.828,0,1.5,0.671,1.5,1.5V257C303,257.828,302.328,258.5,301.5,258.5z"/>
</g>
<g>
	<rect x="34" y="4" fill="#84A931" width="274" height="14"/>
	<path fill="#385409" d="M308.5,19h-274c-0.829,0-1.5-0.671-1.5-1.5v-14C33,2.671,33.671,2,34.5,2h274c0.828,0,1.5,0.671,1.5,1.5v14
		C310,18.329,309.328,19,308.5,19z M36,16h271V5H36V16z"/>
</g>
<g>
	<polyline fill="#84A931" points="31,276 31,258 312,258 312,276 	"/>
	<path fill="#385409" d="M312.5,277.5c-0.828,0-1.5-0.672-1.5-1.5v-17H33v17c0,0.828-0.671,1.5-1.5,1.5S30,276.828,30,276v-18.5
		c0-0.828,0.671-1.5,1.5-1.5h281c0.828,0,1.5,0.672,1.5,1.5V276C314,276.828,313.328,277.5,312.5,277.5z"/>
</g>
<g>
	<path fill="#385409" d="M268.5,258.5c-0.828,0-1.5-0.672-1.5-1.5V157h-60v100c0,0.828-0.672,1.5-1.5,1.5s-1.5-0.672-1.5-1.5V155.5
		c0-0.828,0.672-1.5,1.5-1.5h63c0.828,0,1.5,0.672,1.5,1.5V257C270,257.828,269.328,258.5,268.5,258.5z"/>
</g>
<g>
	<path fill="#385409" d="M182.5,228h-122c-0.829,0-1.5-0.672-1.5-1.5v-10c0-0.828,0.671-1.5,1.5-1.5h122c0.828,0,1.5,0.672,1.5,1.5
		v10C184,227.328,183.328,228,182.5,228z M62,225h119v-7H62V225z"/>
</g>
<g>
	<path fill="#385409" d="M177.5,217.5c-0.828,0-1.5-0.672-1.5-1.5v-59H67v59c0,0.828-0.671,1.5-1.5,1.5S64,216.828,64,216v-60.5
		c0-0.828,0.671-1.5,1.5-1.5h112c0.828,0,1.5,0.672,1.5,1.5V216C179,216.828,178.328,217.5,177.5,217.5z"/>
</g>
<g>
	<rect x="29" y="51" fill="#84A931" width="286" height="70"/>
	<path fill="#385409" d="M315.5,122h-286c-0.829,0-1.5-0.671-1.5-1.5v-70c0-0.829,0.671-1.5,1.5-1.5h286c0.828,0,1.5,0.671,1.5,1.5
		v70C317,121.329,316.328,122,315.5,122z M31,119h283V52H31V119z"/>
</g>
<g>
	<g>
		<path fill="#84A931" d="M52.333,46c0-6.167,4.999-11.167,11.167-11.167S74.667,39.833,74.667,46"/>
		<path fill="#385409" d="M74.667,47.5c-0.829,0-1.5-0.671-1.5-1.5c0-5.33-4.336-9.667-9.667-9.667S53.833,40.67,53.833,46
			c0,0.829-0.671,1.5-1.5,1.5s-1.5-0.671-1.5-1.5c0-6.984,5.682-12.667,12.667-12.667S76.167,39.016,76.167,46
			C76.167,46.829,75.495,47.5,74.667,47.5z"/>
	</g>
	<g>
		<rect x="50" y="47" fill="#84A931" width="26" height="7"/>
		<path fill="#385409" d="M76.5,55h-26c-0.829,0-1.5-0.671-1.5-1.5v-7c0-0.829,0.671-1.5,1.5-1.5h26c0.829,0,1.5,0.671,1.5,1.5v7
			C78,54.329,77.329,55,76.5,55z M52,52h23v-4H52V52z"/>
	</g>
	<g>
		<line fill="#84A931" x1="63" y1="35" x2="63" y2="18"/>
		<path fill="#385409" d="M63.5,36.5c-0.829,0-1.5-0.671-1.5-1.5V18c0-0.829,0.671-1.5,1.5-1.5S65,17.171,65,18v17
			C65,35.829,64.329,36.5,63.5,36.5z"/>
	</g>
</g>
<g>
	<g>
		<path fill="#84A931" d="M159.333,46c0-6.167,4.999-11.167,11.167-11.167S181.667,39.833,181.667,46"/>
		<path fill="#385409" d="M181.667,47.5c-0.828,0-1.5-0.671-1.5-1.5c0-5.33-4.337-9.667-9.667-9.667s-9.667,4.336-9.667,9.667
			c0,0.829-0.671,1.5-1.5,1.5s-1.5-0.671-1.5-1.5c0-6.984,5.682-12.667,12.667-12.667S183.167,39.016,183.167,46
			C183.167,46.829,182.495,47.5,181.667,47.5z"/>
	</g>
	<g>
		<rect x="157" y="47" fill="#84A931" width="26" height="7"/>
		<path fill="#385409" d="M183.5,55h-26c-0.829,0-1.5-0.671-1.5-1.5v-7c0-0.829,0.671-1.5,1.5-1.5h26c0.828,0,1.5,0.671,1.5,1.5v7
			C185,54.329,184.328,55,183.5,55z M159,52h23v-4h-23V52z"/>
	</g>
	<g>
		<line fill="#84A931" x1="170" y1="35" x2="170" y2="18"/>
		<path fill="#385409" d="M170.5,36.5c-0.829,0-1.5-0.671-1.5-1.5V18c0-0.829,0.671-1.5,1.5-1.5c0.828,0,1.5,0.671,1.5,1.5v17
			C172,35.829,171.328,36.5,170.5,36.5z"/>
	</g>
</g>
<g>
	<g>
		<path fill="#84A931" d="M270.333,46c0-6.167,4.999-11.167,11.167-11.167S292.667,39.833,292.667,46"/>
		<path fill="#385409" d="M292.667,47.5c-0.828,0-1.5-0.671-1.5-1.5c0-5.33-4.337-9.667-9.667-9.667s-9.667,4.336-9.667,9.667
			c0,0.829-0.672,1.5-1.5,1.5s-1.5-0.671-1.5-1.5c0-6.984,5.683-12.667,12.667-12.667S294.167,39.016,294.167,46
			C294.167,46.829,293.495,47.5,292.667,47.5z"/>
	</g>
	<g>
		<rect x="268" y="47" fill="#84A931" width="26" height="7"/>
		<path fill="#385409" d="M294.5,55h-26c-0.828,0-1.5-0.671-1.5-1.5v-7c0-0.829,0.672-1.5,1.5-1.5h26c0.828,0,1.5,0.671,1.5,1.5v7
			C296,54.329,295.328,55,294.5,55z M270,52h23v-4h-23V52z"/>
	</g>
	<g>
		<line fill="#84A931" x1="281" y1="35" x2="281" y2="18"/>
		<path fill="#385409" d="M281.5,36.5c-0.828,0-1.5-0.671-1.5-1.5V18c0-0.829,0.672-1.5,1.5-1.5s1.5,0.671,1.5,1.5v17
			C283,35.829,282.328,36.5,281.5,36.5z"/>
	</g>
</g>
<g>
	<line fill="#F2F2F2" x1="84.5" y1="166.667" x2="78.417" y2="172.75"/>
	<path fill="#385409" d="M78.417,174.25c-0.384,0-0.768-0.146-1.061-0.439c-0.586-0.586-0.586-1.535,0-2.121l6.083-6.083
		c0.586-0.586,1.535-0.586,2.121,0s0.586,1.535,0,2.121l-6.083,6.083C79.184,174.104,78.8,174.25,78.417,174.25z"/>
</g>
<g>
	<line fill="#F2F2F2" x1="94.667" y1="165.333" x2="76" y2="184"/>
	<path fill="#385409" d="M76,185.5c-0.384,0-0.768-0.146-1.061-0.439c-0.586-0.586-0.586-1.535,0-2.121l18.667-18.667
		c0.586-0.586,1.535-0.586,2.121,0s0.586,1.535,0,2.121l-18.667,18.667C76.768,185.354,76.384,185.5,76,185.5z"/>
</g>
<g>
	<line fill="#84A931" x1="7" y1="277" x2="334" y2="277"/>
	<path fill="#385409" d="M334,278H7c-0.829,0-1.5-0.672-1.5-1.5S6.171,275,7,275h327c0.828,0,1.5,0.672,1.5,1.5S334.828,278,334,278
		z"/>
</g>
<g>
	<g>
		<path fill="#385409" d="M69.899,90.906c0,2.12-0.795,3.938-2.385,5.45c-1.591,1.513-3.502,2.27-5.732,2.27h-6.328
			c-0.266,0-0.492-0.094-0.68-0.281s-0.281-0.414-0.281-0.68V73.048c0-0.618,0.32-0.928,0.961-0.928h5.731
			c2.496,0,4.451,0.651,5.865,1.955c1.347,1.215,2.021,2.815,2.021,4.804c0,2.143-0.795,3.833-2.386,5.069
			c-0.198,0.155-0.298,0.32-0.298,0.497s0.1,0.331,0.298,0.464C68.828,86.39,69.899,88.388,69.899,90.906z M64.301,79.442
			c0-0.861-0.274-1.579-0.822-2.153c-0.549-0.574-1.226-0.862-2.03-0.862h-1.409c-0.649,0-0.974,0.299-0.974,0.896v4.539
			c0,0.243,0.101,0.464,0.302,0.662c0.201,0.199,0.425,0.298,0.672,0.298h1.409c0.782,0,1.454-0.342,2.013-1.026
			C64.021,81.11,64.301,80.326,64.301,79.442z M64.797,90.707c0-0.994-0.37-1.905-1.109-2.733c-0.74-0.828-1.53-1.242-2.369-1.242
			h-1.292c-0.641,0-0.961,0.31-0.961,0.928v5.831c0,0.619,0.32,0.928,0.961,0.928h1.822c0.816,0,1.513-0.358,2.087-1.076
			S64.797,91.746,64.797,90.707z"/>
		<path fill="#385409" d="M89.911,97.665c0.066,0.243,0.017,0.464-0.15,0.663c-0.167,0.198-0.384,0.298-0.65,0.298h-3.005
			c-0.445,0-0.734-0.317-0.867-0.953l-0.799-3.916c-0.111-0.575-0.397-0.862-0.861-0.862h-4.04c-0.553,0-0.873,0.287-0.961,0.861
			l-0.695,3.909c-0.132,0.641-0.453,0.961-0.96,0.961h-2.948c-0.242,0-0.441-0.1-0.596-0.298c-0.154-0.199-0.21-0.42-0.165-0.663
			l4.87-24.617c0.133-0.618,0.441-0.928,0.928-0.928h4.738c0.485,0,0.795,0.31,0.928,0.928L89.911,97.665z M83.219,87.56
			l-1.558-8.681c-0.089-0.464-0.21-0.695-0.364-0.695c-0.155,0-0.266,0.231-0.331,0.695l-1.425,8.681
			c-0.111,0.641,0.132,0.961,0.729,0.961h2.153c0.243,0,0.447-0.094,0.613-0.281S83.263,87.825,83.219,87.56z"/>
		<path fill="#385409" d="M109.327,91.568c0,2.033-0.724,3.777-2.17,5.235c-1.447,1.458-3.187,2.187-5.219,2.187h-0.298
			c-2.033,0-3.777-0.729-5.235-2.187s-2.187-3.202-2.187-5.235V79.145c0-2.032,0.727-3.771,2.18-5.219
			c1.453-1.446,3.211-2.17,5.274-2.17h0.3c2.041,0,3.777,0.724,5.208,2.17c1.431,1.447,2.146,3.187,2.146,5.219v1.126
			c0,0.221-0.095,0.426-0.281,0.613c-0.188,0.188-0.403,0.281-0.646,0.281h-2.783c-0.243,0-0.464-0.094-0.662-0.281
			c-0.199-0.188-0.299-0.393-0.299-0.613v-0.397c0-1.016-0.263-1.883-0.788-2.601c-0.524-0.718-1.179-1.077-1.961-1.077
			c-0.805,0-1.497,0.359-2.078,1.077s-0.871,1.585-0.871,2.601v11.198c0,1.039,0.286,1.917,0.861,2.635
			c0.574,0.718,1.259,1.076,2.054,1.076c0.796,0,1.475-0.358,2.038-1.076s0.845-1.596,0.845-2.635V90.21
			c0-0.618,0.287-0.928,0.861-0.928h2.783c0.618,0,0.928,0.31,0.928,0.928V91.568z"/>
		<path fill="#385409" d="M130.995,97.731c0.021,0.089,0.033,0.177,0.033,0.265c0,0.42-0.221,0.63-0.662,0.63h-3.376
			c-0.353,0-0.651-0.299-0.894-0.896l-4.033-10.407c-0.089-0.217-0.2-0.326-0.333-0.326c-0.134,0-0.256,0.111-0.366,0.332
			l-1.533,2.584c-0.111,0.199-0.167,0.397-0.167,0.597v7.223c0,0.597-0.287,0.895-0.861,0.895h-2.949
			c-0.552,0-0.828-0.298-0.828-0.895v-24.75c0-0.574,0.276-0.861,0.828-0.861h2.949c0.574,0,0.861,0.287,0.861,0.861v8.018
			c0,0.332,0.088,0.497,0.265,0.497c0.154,0,0.32-0.154,0.497-0.464l4.572-8.018c0.331-0.597,0.641-0.895,0.928-0.895h3.313
			c0.485,0,0.729,0.211,0.729,0.633c0,0.089-0.03,0.178-0.09,0.267l-5.117,8.706c-0.085,0.177-0.094,0.354-0.027,0.53
			L130.995,97.731z"/>
		<path fill="#385409" d="M150.046,91.967c0,2.164-0.702,3.888-2.104,5.168c-1.402,1.281-3.208,1.922-5.417,1.922
			c-2.606,0-4.628-0.916-6.063-2.75c-0.795-1.016-1.457-2.452-1.987-4.308c-0.155-0.529,0.021-0.883,0.53-1.06l2.451-0.828
			c0.11-0.022,0.21-0.033,0.299-0.033c0.441,0,0.729,0.21,0.861,0.629c0.75,2.762,2.054,4.142,3.909,4.142
			c0.928,0,1.651-0.259,2.17-0.778c0.52-0.519,0.779-1.221,0.779-2.104c0-1.171-0.906-2.54-2.717-4.108
			c-1.657-1.392-3.325-2.783-5.003-4.175c-1.812-1.789-2.717-3.557-2.717-5.302c0-2.076,0.706-3.722,2.12-4.937
			c1.28-1.127,2.871-1.689,4.771-1.689c2.319,0,4.197,0.905,5.633,2.717c0.729,0.928,1.281,2.01,1.657,3.247
			c0.021,0.088,0.032,0.188,0.032,0.298c0,0.397-0.198,0.663-0.596,0.795l-2.154,0.696c-0.088,0.044-0.177,0.066-0.265,0.066
			c-0.397,0-0.674-0.199-0.828-0.597c-0.994-2.341-2.153-3.512-3.479-3.512c-0.707,0-1.319,0.298-1.839,0.895
			c-0.519,0.596-0.778,1.271-0.778,2.021c0,0.906,0.928,2.109,2.783,3.611c3.004,2.431,4.727,3.866,5.169,4.308
			C149.118,88.2,150.046,90.089,150.046,91.967z"/>
	</g>
	<g>
		<path fill="#385409" d="M208.074,90.906c0,2.12-0.795,3.938-2.385,5.45c-1.591,1.513-3.502,2.27-5.732,2.27h-6.328
			c-0.266,0-0.492-0.094-0.68-0.281s-0.281-0.414-0.281-0.68V73.048c0-0.618,0.32-0.928,0.961-0.928h5.731
			c2.496,0,4.451,0.651,5.865,1.955c1.347,1.215,2.021,2.815,2.021,4.804c0,2.143-0.795,3.833-2.386,5.069
			c-0.198,0.155-0.298,0.32-0.298,0.497s0.1,0.331,0.298,0.464C207.003,86.39,208.074,88.388,208.074,90.906z M202.476,79.442
			c0-0.861-0.274-1.579-0.822-2.153c-0.549-0.574-1.226-0.862-2.03-0.862h-1.409c-0.649,0-0.974,0.299-0.974,0.896v4.539
			c0,0.243,0.101,0.464,0.302,0.662c0.201,0.199,0.425,0.298,0.672,0.298h1.409c0.782,0,1.454-0.342,2.013-1.026
			C202.195,81.11,202.476,80.326,202.476,79.442z M202.972,90.707c0-0.994-0.37-1.905-1.109-2.733
			c-0.74-0.828-1.53-1.242-2.369-1.242h-1.292c-0.641,0-0.961,0.31-0.961,0.928v5.831c0,0.619,0.32,0.928,0.961,0.928h1.822
			c0.816,0,1.513-0.358,2.087-1.076S202.972,91.746,202.972,90.707z"/>
		<path fill="#385409" d="M228.086,97.665c0.066,0.243,0.017,0.464-0.15,0.663c-0.167,0.198-0.384,0.298-0.65,0.298h-3.005
			c-0.445,0-0.734-0.317-0.867-0.953l-0.799-3.916c-0.111-0.575-0.397-0.862-0.861-0.862h-4.04c-0.553,0-0.873,0.287-0.961,0.861
			l-0.695,3.909c-0.132,0.641-0.453,0.961-0.96,0.961h-2.948c-0.242,0-0.441-0.1-0.596-0.298c-0.154-0.199-0.21-0.42-0.165-0.663
			l4.87-24.617c0.133-0.618,0.441-0.928,0.928-0.928h4.738c0.485,0,0.795,0.31,0.928,0.928L228.086,97.665z M221.394,87.56
			l-1.558-8.681c-0.089-0.464-0.21-0.695-0.364-0.695c-0.155,0-0.266,0.231-0.331,0.695l-1.425,8.681
			c-0.111,0.641,0.132,0.961,0.729,0.961h2.153c0.243,0,0.447-0.094,0.613-0.281S221.438,87.825,221.394,87.56z"/>
		<path fill="#385409" d="M247.502,91.568c0,2.033-0.724,3.777-2.17,5.235c-1.447,1.458-3.187,2.187-5.219,2.187h-0.298
			c-2.033,0-3.777-0.729-5.235-2.187s-2.187-3.202-2.187-5.235V79.145c0-2.032,0.727-3.771,2.18-5.219
			c1.453-1.446,3.211-2.17,5.274-2.17h0.3c2.041,0,3.777,0.724,5.208,2.17c1.431,1.447,2.146,3.187,2.146,5.219v1.126
			c0,0.221-0.095,0.426-0.281,0.613c-0.188,0.188-0.403,0.281-0.646,0.281h-2.783c-0.243,0-0.464-0.094-0.662-0.281
			c-0.199-0.188-0.299-0.393-0.299-0.613v-0.397c0-1.016-0.263-1.883-0.788-2.601c-0.524-0.718-1.179-1.077-1.961-1.077
			c-0.805,0-1.497,0.359-2.078,1.077s-0.871,1.585-0.871,2.601v11.198c0,1.039,0.286,1.917,0.861,2.635
			c0.574,0.718,1.259,1.076,2.054,1.076c0.796,0,1.475-0.358,2.038-1.076s0.845-1.596,0.845-2.635V90.21
			c0-0.618,0.287-0.928,0.861-0.928h2.783c0.618,0,0.928,0.31,0.928,0.928V91.568z"/>
		<path fill="#385409" d="M269.17,97.731c0.021,0.089,0.033,0.177,0.033,0.265c0,0.42-0.221,0.63-0.662,0.63h-3.376
			c-0.353,0-0.651-0.299-0.894-0.896l-4.033-10.407c-0.089-0.217-0.2-0.326-0.333-0.326c-0.134,0-0.256,0.111-0.366,0.332
			l-1.533,2.584c-0.111,0.199-0.167,0.397-0.167,0.597v7.223c0,0.597-0.287,0.895-0.861,0.895h-2.949
			c-0.552,0-0.828-0.298-0.828-0.895v-24.75c0-0.574,0.276-0.861,0.828-0.861h2.949c0.574,0,0.861,0.287,0.861,0.861v8.018
			c0,0.332,0.088,0.497,0.265,0.497c0.154,0,0.32-0.154,0.497-0.464l4.572-8.018c0.331-0.597,0.641-0.895,0.928-0.895h3.313
			c0.485,0,0.729,0.211,0.729,0.633c0,0.089-0.03,0.178-0.09,0.267l-5.117,8.706c-0.085,0.177-0.094,0.354-0.027,0.53L269.17,97.731
			z"/>
		<path fill="#385409" d="M288.221,91.967c0,2.164-0.702,3.888-2.104,5.168c-1.402,1.281-3.208,1.922-5.417,1.922
			c-2.606,0-4.628-0.916-6.063-2.75c-0.795-1.016-1.457-2.452-1.987-4.308c-0.155-0.529,0.021-0.883,0.53-1.06l2.451-0.828
			c0.11-0.022,0.21-0.033,0.299-0.033c0.441,0,0.729,0.21,0.861,0.629c0.75,2.762,2.054,4.142,3.909,4.142
			c0.928,0,1.651-0.259,2.17-0.778c0.52-0.519,0.779-1.221,0.779-2.104c0-1.171-0.906-2.54-2.717-4.108
			c-1.657-1.392-3.325-2.783-5.003-4.175c-1.812-1.789-2.717-3.557-2.717-5.302c0-2.076,0.706-3.722,2.12-4.937
			c1.28-1.127,2.871-1.689,4.771-1.689c2.319,0,4.197,0.905,5.633,2.717c0.729,0.928,1.281,2.01,1.657,3.247
			c0.021,0.088,0.032,0.188,0.032,0.298c0,0.397-0.198,0.663-0.596,0.795l-2.154,0.696c-0.088,0.044-0.177,0.066-0.265,0.066
			c-0.397,0-0.674-0.199-0.828-0.597c-0.994-2.341-2.153-3.512-3.479-3.512c-0.707,0-1.319,0.298-1.839,0.895
			c-0.519,0.596-0.778,1.271-0.778,2.021c0,0.906,0.928,2.109,2.783,3.611c3.004,2.431,4.727,3.866,5.169,4.308
			C287.293,88.2,288.221,90.089,288.221,91.967z"/>
	</g>
	<g>
		<path fill="#385409" d="M169.929,88.284c0,0.909-0.319,1.686-0.957,2.329c-0.639,0.644-1.412,0.966-2.321,0.966h-0.476
			c-0.909,0-1.683-0.322-2.321-0.966s-0.957-1.42-0.957-2.329v-6.037c0-0.909,0.318-1.68,0.957-2.313
			c0.639-0.633,1.412-0.95,2.321-0.95h0.476c0.909,0,1.683,0.317,2.321,0.95c0.638,0.634,0.957,1.404,0.957,2.313V88.284z
			 M167.753,87.963v-5.317c0-0.459-0.127-0.848-0.383-1.164c-0.255-0.316-0.562-0.476-0.919-0.476c-0.358,0-0.669,0.161-0.935,0.483
			c-0.266,0.321-0.398,0.707-0.398,1.156v5.317c0,0.439,0.133,0.817,0.398,1.134s0.576,0.475,0.935,0.475
			c0.357,0,0.664-0.155,0.919-0.467C167.626,88.793,167.753,88.412,167.753,87.963z"/>
		<path fill="#385409" d="M179.229,90.996c0,0.276-0.138,0.414-0.414,0.414h-1.197c-0.185,0-0.333-0.127-0.445-0.381l-2.918-6.517
			c-0.031-0.08-0.072-0.12-0.125-0.12c-0.073,0-0.109,0.057-0.109,0.169v6.435c0,0.276-0.144,0.414-0.43,0.414h-1.256
			c-0.256,0-0.383-0.138-0.383-0.414v-11.43c0-0.276,0.127-0.414,0.383-0.414h1.256c0.225,0,0.398,0.144,0.521,0.429l2.819,6.298
			c0.041,0.071,0.092,0.107,0.153,0.107s0.092-0.057,0.092-0.169v-6.236c0-0.112,0.046-0.212,0.138-0.299
			c0.092-0.086,0.194-0.13,0.307-0.13h1.195c0.275,0,0.413,0.144,0.413,0.429V90.996z"/>
	</g>
</g>
<g opacity="0.3">
	<rect x="44" y="122" fill="#385409" width="257" height="5"/>
</g>
<g opacity="0.3">
	<rect x="207" y="157" fill="#385409" width="60" height="3"/>
</g>
<g opacity="0.3">
	<rect x="32" y="257" fill="#385409" width="280" height="5"/>
</g>
<g opacity="0.3">
	<rect x="60" y="226" fill="#385409" width="122" height="5"/>
</g>
<g opacity="0.3">
	<rect x="44" y="18" fill="#385409" width="257" height="5"/>
</g>
<g>
	<circle fill="#84A931" cx="217.25" cy="208.25" r="4.5"/>
	<path fill="#385409" d="M217.25,214.25c-3.309,0-6-2.691-6-6s2.691-6,6-6s6,2.691,6,6S220.559,214.25,217.25,214.25z
		 M217.25,205.25c-1.654,0-3,1.346-3,3s1.346,3,3,3s3-1.346,3-3S218.904,205.25,217.25,205.25z"/>
</g>
</svg>
