<?xml version="1.0" encoding="utf-8"?>
<!-- Generator: Adobe Illustrator 17.0.0, SVG Export Plug-In . SVG Version: 6.00 Build 0)  -->
<!DOCTYPE svg PUBLIC "-//W3C//DTD SVG 1.1//EN" "http://www.w3.org/Graphics/SVG/1.1/DTD/svg11.dtd">
<svg version="1.1" id="Layer_1" xmlns="http://www.w3.org/2000/svg" xmlns:xlink="http://www.w3.org/1999/xlink" x="0px" y="0px"
	  viewBox="0 0 550 343.333" enable-background="new 0 0 550 343.333" xml:space="preserve">
<g>
	<path fill="none" stroke="#009345" stroke-width="6.7218" stroke-miterlimit="10" d="M365.794,65.457
		c6.726,37.203-8.752,78.4-19.547,78.4s0-48.973-19.547-78.4c-5.974-8.992,8.752-19.547,19.547-19.547
		S363.874,54.833,365.794,65.457z"/>
	<path fill="#FFFFFF" stroke="#009345" stroke-width="4.8013" stroke-miterlimit="10" d="M354.731,46.387
		c0.354,1.753-3.1,0.364-5.509,1.569c-5.093,2.546-2.546,6.553-6.015,7.253c-2.907,0.587-5.682-4.343-7.991-4.707
		c-3.299-0.52-5.644,3.076-6.053,1.048c-0.696-3.446,4.463-7.396,11.524-8.822C347.747,41.303,354.035,42.941,354.731,46.387z"/>
	<path fill="#009345" d="M341.04,20.129c7.028-8.017-8.749-2.145-9.993,1.575s7.785,21.569,7.785,21.569l3.398-1.226
		C342.23,42.046,335.482,26.469,341.04,20.129z"/>
</g>
<g>
	<path fill="none" stroke="#009345" stroke-width="6.7218" stroke-miterlimit="10" d="M107.201,222.76
		c4.268,73.243-56.041,98.948-67.425,67.425c-12.625-34.962,41.155-41.155,40.28-70.927c-0.289-9.84,3.088-19.264,12.933-19.264
		S106.628,212.932,107.201,222.76z"/>
	<path fill="#FFFFFF" stroke="#009345" stroke-width="4.8013" stroke-miterlimit="10" d="M99.711,199.236
		c0.246,1.219-2.156,0.253-3.832,1.091c-3.543,1.771-1.771,4.558-4.184,5.045c-2.022,0.408-3.953-3.021-5.558-3.274
		c-2.295-0.362-3.926,2.139-4.211,0.729c-0.484-2.397,3.105-5.145,8.016-6.136C94.853,195.699,99.227,196.838,99.711,199.236z"/>
	<path fill="#009345" d="M92.315,182.48c4.166-4.753-8.895-1.329-9.632,0.876c-0.737,2.205,7.043,13.602,7.043,13.602l2.014-0.727
		C91.74,196.231,89.02,186.238,92.315,182.48z"/>
</g>
<g>
	<path fill="#009345" d="M58.53,122.453c-3.392,0-6.145-2.75-6.145-6.145c0-3.394,2.753-6.144,6.145-6.144"/>
	<path fill="none" stroke="#009345" stroke-width="6.7218" stroke-miterlimit="10" d="M105.545,49.655
		c-0.102-0.615-0.192-1.258-0.285-1.924c-0.732-5.235-1.734-12.404-10.201-18.172c-3.625-2.469-9.168-3.345-12.812-3.345
		c-3.645,0-9.186,0.876-12.812,3.345c-8.467,5.769-9.469,12.937-10.2,18.172c-0.093,0.666-0.183,1.309-0.285,1.924
		c-2.137,12.825-1.986,27.178-1.826,30.333c-0.16,3.156-0.311,17.509,1.826,30.334c0.102,0.615,0.192,1.258,0.285,1.924
		c0.731,5.234,1.734,12.403,10.2,18.171c3.625,2.469,9.168,3.346,12.812,3.346c3.645,0,9.188-0.876,12.813-3.346
		c8.467-5.768,9.468-12.937,10.201-18.171c0.092-0.666,0.182-1.309,0.285-1.924c2.137-12.825,1.985-27.178,1.826-30.334
		C107.53,76.833,107.681,62.481,105.545,49.655z"/>
	<path fill="#009345" d="M107.265,41.207c3.102,0,5.617,2.516,5.617,5.618c0,3.103-2.516,5.617-5.617,5.617"/>
</g>
<g>
	<path fill="none" stroke="#009345" stroke-width="6.7218" stroke-miterlimit="10" d="M236.504,61.446
		c0,11.042-9.24,80.187-20.638,80.187c-11.398,0-20.638-69.145-20.638-80.187s9.24-19.993,20.638-19.993
		C227.264,41.453,236.504,50.404,236.504,61.446z"/>
	<path fill="#009345" d="M223.784,21.142c8.115-4.94-8.878-1.831-8.878-1.831v21.974h3.621
		C218.527,41.285,217.367,25.048,223.784,21.142z"/>
	<path fill="#009345" d="M223.784,21.142c8.115-4.94-8.878-1.831-8.878-1.831v21.974h3.621
		C218.527,41.285,217.367,25.048,223.784,21.142z"/>
	<path fill="#009345" d="M206.507,21.142c-8.115-4.94,8.398-1.831,8.398-1.831v21.974h-2.661
		C212.245,41.285,212.924,25.048,206.507,21.142z"/>
	<path fill="#FFFFFF" stroke="#009345" stroke-width="4.8013" stroke-linecap="round" stroke-miterlimit="10" d="M234.784,74.13
		c0,0-0.86,7.739-12.899,7.739"/>
	<path fill="#FFFFFF" stroke="#009345" stroke-width="4.8013" stroke-linecap="round" stroke-miterlimit="10" d="M201.247,102.507
		c0,0,1.72,6.019,12.039,6.019"/>
</g>
<g>
	
		<path fill="none" stroke="#009345" stroke-width="6.7218" stroke-linecap="round" stroke-linejoin="round" stroke-miterlimit="10" d="
		M491.695,92.02c4.775,12.734,22.284,6.168,22.284-6.566s-17.509-25.273-23.876-30.048s-4.775-15.723-4.775-15.723h-17.509
		c0,0,1.592,12.042-12.734,20.001c-15.865,8.814-21.032,18.133-17.509,28.703c3.183,9.55,15.917,7.985,17.509-1.566"/>
	<path fill="#FFFFFF" stroke="#009345" stroke-width="4.8013" stroke-linecap="round" stroke-miterlimit="10" d="M448.944,78.888
		c-2.748,4.947-6.062,11.485-5.065,16.97c3.183,17.509,28.715,13.273,31.898,3.722"/>
	<path fill="#FFFFFF" stroke="#009345" stroke-width="4.8013" stroke-linecap="round" stroke-miterlimit="10" d="M465.959,78.889
		c-0.882,3.404-1.324,6.588-1.324,9.55c0,7.959,6.367,23.876,22.284,22.284c15.917-1.592,25.468-23.876,6.367-38.201"/>
	<polygon fill="#009345" points="493.813,110.263 496.47,118.767 487.092,115.064 482.145,120.295 476.529,114.104 470.767,119.865 
		466.926,114.104 457.323,117.945 460.189,109.461 469.411,106.034 477.369,109.302 	"/>
	<path fill="none" stroke="#009345" stroke-width="6.7218" stroke-miterlimit="10" d="M442.919,94.898c0,0,0.011,8.203,8.642,11.523
		c8.631,3.32,17.933-1.419,17.933-1.419s7.303,7.967,16.599,6.639c9.295-1.328,15.935-8.631,17.926-13.279"/>
</g>
<g>
	<path fill="none" stroke="#009345" stroke-width="6.7218" stroke-miterlimit="10" d="M222.951,250.791
		c0,10.804-7.101,19.949-16.89,23.024c-2.285,0.718-3.953,13.169-6.474,13.169c-2.518,0-5.71-12.45-7.992-13.165
		c-9.794-3.071-16.9-12.219-16.9-23.027c0-13.326,10.803-24.128,24.128-24.128S222.951,237.465,222.951,250.791z"/>
	<path fill="#009345" d="M198.823,201.273c0,0-19.2-10.157-11.253-0.772c9.148,10.803,7.044,25.986,7.044,25.986h4.209h4.58
		c0,0-2.289-15.183,6.859-25.986C218.208,191.116,198.823,201.273,198.823,201.273z"/>
</g>
<g>
	<path fill="#009345" d="M355.749,196.073c14.511-1.487-9.073-7.971-13.348-5.845c-4.274,2.127-6.507,23.019-6.507,23.019
		l5.051,1.428C340.945,214.675,344.274,197.248,355.749,196.073z"/>
	<path fill="none" stroke="#009345" stroke-width="6.7218" stroke-miterlimit="10" d="M338.604,289.813
		c3.731,0,1.739,5.291,16.663,3.527c14.924-1.764,13.058-12.346,14.924-17.637c1.865-5.291,3.731-24.692,9.329-31.077
		c4.067-4.639,7.46-10.042,7.46-16.544c0-12.663-10.858-22.928-24.251-22.928c-5.5,0-10.582,1.718-14.641,4.648
		c-2.88,2.079-2.021,4.96-9.484,4.96c-7.463,0-6.604-2.881-9.484-4.96c-4.059-2.93-9.141-4.648-14.641-4.648
		c-13.394,0-24.251,10.265-24.251,22.928c0,6.502,3.393,11.905,7.46,16.544c5.598,6.385,7.464,25.786,9.329,31.077
		c1.865,5.291,0,15.873,14.924,17.637C336.865,295.104,334.873,289.813,338.604,289.813z"/>
	<path fill="#FFFFFF" stroke="#009345" stroke-width="4.8013" stroke-linecap="round" stroke-miterlimit="10" d="M351.647,280.994
		c-2.294,4.171-7.214,7.055-12.915,7.055c-5.703,0-10.626-2.887-12.919-7.061"/>
</g>
<g>
	<path fill="none" stroke="#009345" stroke-width="6.7218" stroke-miterlimit="10" d="M486.259,192.656
		c0,10.5,11.843,13.816,17.093,24.039c5.25,10.224,1.911,17.408,1.911,17.408v50.751c1.921,6.77-1.497,15.199-2.602,17.271
		s-23.437,1.797-23.437,1.797h2.057c0,0-22.288,0.275-23.393-1.797s-4.479-10.501-2.559-17.271v-50.751
		c0,0-3.382-7.184,1.868-17.408c5.25-10.224,17.071-13.539,17.071-24.039"/>
	<g>
		<path fill="#009345" d="M492.3,193.013v-6.509l-0.96-0.322v-5.238c0-1.068-2.985-0.254-4.053-1.374h-13.98
			c-1.068,1.12-4.053,0.306-4.053,1.374v5.238l-0.96,0.322v6.509H492.3z"/>
	</g>
	
		<line fill="#FFFFFF" stroke="#009345" stroke-width="4.8013" stroke-linecap="round" stroke-miterlimit="10" x1="456.77" y1="233.824" x2="504.783" y2="233.824"/>
	
		<line fill="#FFFFFF" stroke="#009345" stroke-width="4.8013" stroke-linecap="round" stroke-miterlimit="10" x1="456.77" y1="284.718" x2="504.783" y2="284.718"/>
</g>
</svg>
